<?xml version="1.0" standalone="no"?><!DOCTYPE svg PUBLIC "-//W3C//DTD SVG 1.1//EN" "http://www.w3.org/Graphics/SVG/1.1/DTD/svg11.dtd"><svg t="1573015163881" class="icon" viewBox="0 0 1024 1024" version="1.1" xmlns="http://www.w3.org/2000/svg" p-id="4142" xmlns:xlink="http://www.w3.org/1999/xlink" width="200" height="200"><defs><style type="text/css"></style></defs><path d="M727.68 398.72L456 672a32 32 0 0 1-22.4 9.28 32 32 0 0 1-22.72-9.28L275.2 534.72a32 32 0 0 1 0-45.44 32 32 0 0 1 45.12 0l113.28 113.28 248.64-248.96a32 32 0 0 1 45.44 0 32 32 0 0 1 0 45.12M512 64a448 448 0 1 0 448 448A448 448 0 0 0 512 64" p-id="4143" fill="#27df34"></path></svg>