<?xml version="1.0" standalone="no"?><!DOCTYPE svg PUBLIC "-//W3C//DTD SVG 1.1//EN" "http://www.w3.org/Graphics/SVG/1.1/DTD/svg11.dtd"><svg t="1573015116570" class="icon" viewBox="0 0 1024 1024" version="1.1" xmlns="http://www.w3.org/2000/svg" p-id="3172" xmlns:xlink="http://www.w3.org/1999/xlink" width="200" height="200"><defs><style type="text/css"></style></defs><path d="M512 0C230.4 0 0 230.4 0 512s230.4 512 512 512 512-230.4 512-512S793.6 0 512 0zM512 819.2c-25.6 0-51.2-19.2-51.2-51.2 0-25.6 19.2-51.2 51.2-51.2s51.2 19.2 51.2 51.2C563.2 793.6 537.6 819.2 512 819.2zM544 608C544 627.2 531.2 640 512 640S480 627.2 480 608L480 256c0-19.2 12.8-32 32-32S544 236.8 544 256L544 608z" p-id="3173" fill="#efb336"></path></svg>