<?xml version="1.0" standalone="no"?><!DOCTYPE svg PUBLIC "-//W3C//DTD SVG 1.1//EN" "http://www.w3.org/Graphics/SVG/1.1/DTD/svg11.dtd"><svg t="1573015056781" class="icon" viewBox="0 0 1024 1024" version="1.1" xmlns="http://www.w3.org/2000/svg" p-id="1136" xmlns:xlink="http://www.w3.org/1999/xlink" width="200" height="200"><defs><style type="text/css"></style></defs><path d="M512.697 63.445c-247.538 0-448.208 200.67-448.208 448.208 0 247.54 200.67 448.208 448.208 448.208 247.54 0 448.208-200.668 448.208-448.208 0-247.539-200.668-448.208-448.208-448.208z m177.99 581.763c12.264 12.273 12.264 32.17 0 44.427-12.284 12.273-32.172 12.273-44.454 0L512.916 556.318 379.59 689.635c-12.274 12.273-32.162 12.273-44.445 0-12.266-12.256-12.266-32.154 0-44.427l133.334-133.353-133.334-133.318c-12.266-12.256-12.266-32.17 0-44.444 12.282-12.256 32.17-12.256 44.445 0l133.326 133.335 133.317-133.335c12.282-12.256 32.17-12.256 44.453 0 12.265 12.274 12.265 32.19 0 44.444L557.351 511.855l133.335 133.353z" p-id="1137" fill="#e8442f"></path></svg>